<svg id="Layer_1" data-name="Layer 1" xmlns="http://www.w3.org/2000/svg" viewBox="0 0 614.24 691.44"><defs><style>.cls-1{fill:#74a38b;}.cls-2{fill:#95baa6;}.cls-3{fill:#ffd8cf;}.cls-4{fill:#91af9d;}.cls-5{fill:#f4b8ab;}.cls-6{fill:#ddb580;}.cls-7{fill:#f2cc8f;}.cls-8{fill:#e5ba80;}.cls-9{fill:#f4f1ed;}.cls-10{fill:#fff;}</style></defs><title>lara_image</title><polygon class="cls-1" points="120.16 439.12 120.16 65.55 0 31.21 0 566.28 120.16 625.9 252.23 691.44 252.23 495.39 120.16 439.12"/><polygon class="cls-2" points="504.46 566.28 252.23 691.44 252.23 495.39 504.46 387.92 504.46 566.28"/><polygon class="cls-2" points="614.24 170.5 504.46 209.57 504.46 387.92 614.24 341.15 614.24 170.5"/><polygon class="cls-3" points="504.46 388 370.99 340.54 120.16 439.12 252.32 495.43 504.46 388"/><polygon class="cls-4" points="480.19 134.24 614.24 170.5 504.46 209.57 370.99 169.93 480.19 134.24"/><polygon class="cls-4" points="131.56 0 251.92 31.3 120.16 65.55 0.31 31.3 131.56 0"/><polygon class="cls-2" points="251.92 388.04 120.16 439.12 120.16 65.55 251.92 31.3 251.92 388.04"/><polygon class="cls-5" points="504.46 388 370.99 340.54 370.99 169.93 504.46 209.57 504.46 388"/><polygon class="cls-6" points="252.23 495.39 120.16 439.12 120.16 251.38 252.23 299.14 252.23 495.39"/><polygon class="cls-7" points="504.46 387.92 252.23 495.39 252.23 299.14 504.46 209.57 504.46 387.92"/><polygon class="cls-8" points="370.99 169.93 504.46 209.57 252.23 299.14 120.16 251.38 370.99 169.93"/><polygon class="cls-9" points="500.97 388.92 448.27 411.41 376.11 372.37 392.07 326.98 500.97 388.92"/><polygon class="cls-10" points="448.27 411.41 268.77 488.02 320.23 342.14 376.11 372.37 448.27 411.41"/><circle class="cls-9" cx="421.04" cy="296.91" r="15.09"/></svg>